<svg xmlns="http://www.w3.org/2000/svg" xmlns:xlink="http://www.w3.org/1999/xlink" width="444" zoomAndPan="magnify" viewBox="0 0 333 332.999992" height="444" preserveAspectRatio="xMidYMid meet" version="1.0"><defs><clipPath id="3ca14b7301"><path d="M 0 0 L 332.742188 0 L 332.742188 332.742188 L 0 332.742188 Z M 0 0 " clip-rule="nonzero"/></clipPath><clipPath id="71640487e6"><path d="M 133.617188 104 L 243 104 L 243 228 L 133.617188 228 Z M 133.617188 104 " clip-rule="nonzero"/></clipPath><clipPath id="804560b78a"><rect x="0" width="333" y="0" height="333"/></clipPath></defs><g><g clip-path="url(#804560b78a)"><g clip-path="url(#3ca14b7301)"><path fill="#1871d4" d="M 166.320312 -0.0390625 C 74.59375 -0.0390625 -0.0390625 74.59375 -0.0390625 166.320312 C -0.0390625 258.046875 74.59375 332.679688 166.320312 332.679688 C 258.046875 332.679688 332.679688 258.046875 332.679688 166.320312 C 332.679688 74.59375 258.046875 -0.0390625 166.320312 -0.0390625 Z M 166.320312 311.886719 C 86.050781 311.886719 20.753906 246.570312 20.753906 166.320312 C 20.753906 86.070312 86.050781 20.753906 166.320312 20.753906 C 246.589844 20.753906 311.886719 86.070312 311.886719 166.320312 C 311.886719 246.570312 246.589844 311.886719 166.320312 311.886719 Z M 166.320312 311.886719 " fill-opacity="1" fill-rule="nonzero"/></g><g clip-path="url(#71640487e6)"><path fill="#042344" d="M 238.472656 173.328125 C 243.832031 170.234375 243.832031 162.503906 238.472656 159.410156 L 145.667969 105.832031 C 140.3125 102.738281 133.617188 106.605469 133.617188 112.789062 L 133.617188 219.949219 C 133.617188 226.136719 140.3125 230 145.667969 226.910156 Z M 238.472656 173.328125 " fill-opacity="1" fill-rule="evenodd"/></g></g></g></svg>