<svg xmlns="http://www.w3.org/2000/svg" xmlns:xlink="http://www.w3.org/1999/xlink" width="444" zoomAndPan="magnify" viewBox="0 0 333 332.999992" height="444" preserveAspectRatio="xMidYMid meet" version="1.0"><defs><clipPath id="cc007648a4"><path d="M 0 0 L 332.742188 0 L 332.742188 332.742188 L 0 332.742188 Z M 0 0 " clip-rule="nonzero"/></clipPath><clipPath id="9a243c0e8c"><path d="M 133.617188 104 L 243 104 L 243 229 L 133.617188 229 Z M 133.617188 104 " clip-rule="nonzero"/></clipPath><clipPath id="d9a392de8d"><rect x="0" width="333" y="0" height="333"/></clipPath></defs><g><g clip-path="url(#d9a392de8d)"><g clip-path="url(#cc007648a4)"><path fill="#1871d4" d="M 166.320312 -0.0390625 C 74.59375 -0.0390625 -0.0390625 74.59375 -0.0390625 166.320312 C -0.0390625 258.046875 74.59375 332.679688 166.320312 332.679688 C 258.046875 332.679688 332.679688 258.046875 332.679688 166.320312 C 332.679688 74.59375 258.046875 -0.0390625 166.320312 -0.0390625 Z M 166.320312 311.886719 C 86.050781 311.886719 20.753906 246.570312 20.753906 166.320312 C 20.753906 86.070312 86.050781 20.753906 166.320312 20.753906 C 246.589844 20.753906 311.886719 86.070312 311.886719 166.320312 C 311.886719 246.570312 246.589844 311.886719 166.320312 311.886719 Z M 166.320312 311.886719 " fill-opacity="1" fill-rule="nonzero"/></g><g clip-path="url(#9a243c0e8c)"><path fill="#ffffff" d="M 238.730469 173.433594 C 244.101562 170.335938 244.101562 162.589844 238.730469 159.496094 L 145.699219 105.835938 C 140.328125 102.738281 133.617188 106.609375 133.617188 112.804688 L 133.617188 220.121094 C 133.617188 226.316406 140.328125 230.1875 145.699219 227.089844 Z M 238.730469 173.433594 " fill-opacity="1" fill-rule="evenodd"/></g></g></g></svg>