<svg xmlns="http://www.w3.org/2000/svg" xmlns:xlink="http://www.w3.org/1999/xlink" width="444" zoomAndPan="magnify" viewBox="0 0 333 332.999992" height="444" preserveAspectRatio="xMidYMid meet" version="1.0"><defs><clipPath id="922d6025e5"><path d="M 113.75 95 L 240 95 L 240 238 L 113.75 238 Z M 113.75 95 " clip-rule="nonzero"/></clipPath></defs><path fill="#1871d4" d="M 166.320312 -0.0390625 C 74.59375 -0.0390625 -0.0390625 74.59375 -0.0390625 166.320312 C -0.0390625 258.046875 74.59375 332.679688 166.320312 332.679688 C 258.046875 332.679688 332.679688 258.046875 332.679688 166.320312 C 332.679688 74.59375 258.046875 -0.0390625 166.320312 -0.0390625 Z M 166.320312 311.886719 C 86.050781 311.886719 20.753906 246.570312 20.753906 166.320312 C 20.753906 86.070312 86.050781 20.753906 166.320312 20.753906 C 246.589844 20.753906 311.886719 86.070312 311.886719 166.320312 C 311.886719 246.570312 246.589844 311.886719 166.320312 311.886719 Z M 166.320312 311.886719 " fill-opacity="1" fill-rule="nonzero"/><g clip-path="url(#922d6025e5)"><path fill="#ffffff" d="M 235.066406 174.527344 C 241.265625 170.949219 241.265625 161.992188 235.066406 158.410156 L 127.691406 96.359375 C 121.496094 92.777344 113.75 97.253906 113.75 104.417969 L 113.75 228.523438 C 113.75 235.683594 121.496094 240.160156 127.691406 236.582031 Z M 235.066406 174.527344 " fill-opacity="1" fill-rule="evenodd"/></g></svg>