<svg xmlns="http://www.w3.org/2000/svg" xmlns:xlink="http://www.w3.org/1999/xlink" width="444" zoomAndPan="magnify" viewBox="0 0 333 332.999992" height="444" preserveAspectRatio="xMidYMid meet" version="1.0"><defs><clipPath id="163c7264d5"><path d="M 113.75 95 L 240 95 L 240 238 L 113.75 238 Z M 113.75 95 " clip-rule="nonzero"/></clipPath></defs><path fill="#1871d4" d="M 166.320312 -0.0390625 C 74.59375 -0.0390625 -0.0390625 74.59375 -0.0390625 166.320312 C -0.0390625 258.046875 74.59375 332.679688 166.320312 332.679688 C 258.046875 332.679688 332.679688 258.046875 332.679688 166.320312 C 332.679688 74.59375 258.046875 -0.0390625 166.320312 -0.0390625 Z M 166.320312 311.886719 C 86.050781 311.886719 20.753906 246.570312 20.753906 166.320312 C 20.753906 86.070312 86.050781 20.753906 166.320312 20.753906 C 246.589844 20.753906 311.886719 86.070312 311.886719 166.320312 C 311.886719 246.570312 246.589844 311.886719 166.320312 311.886719 Z M 166.320312 311.886719 " fill-opacity="1" fill-rule="nonzero"/><g clip-path="url(#163c7264d5)"><path fill="#042344" d="M 235.144531 174.503906 C 241.347656 170.921875 241.347656 161.972656 235.144531 158.390625 L 127.703125 96.359375 C 121.5 92.777344 113.75 97.253906 113.75 104.414062 L 113.75 228.480469 C 113.75 235.640625 121.5 240.113281 127.703125 236.535156 Z M 235.144531 174.503906 " fill-opacity="1" fill-rule="evenodd"/></g></svg>