<svg width="512" height="512" viewBox="0 0 512 512" fill="none" xmlns="http://www.w3.org/2000/svg"><rect width="512" height="512" rx="128" fill="url(#a)" paint-order="stroke"/><defs><radialGradient id="a" cx="50%" cy="50%" r="100%" fx="50%" fy="0%" gradientUnits="objectBoundingBox"><stop stop-color="#1871d3"/><stop offset="1" stop-color="#042344"/></radialGradient></defs><svg xmlns="http://www.w3.org/2000/svg" xmlns:xlink="http://www.w3.org/1999/xlink" width="512" viewBox="0 0 375 375" height="512" version="1.0" alignment-baseline="middle" style="color:#fff"><defs><clipPath id="b"><path d="M52.45 250h270v28h-270Zm0 0"/></clipPath></defs><path fill="#fff" d="M284.07 198.484h8.438v56.551h-8.438ZM90.918 255.035h-8.441V126.453c0-6.144 4.984-11.144 11.105-11.144h100.11v8.437H93.585c-1.469 0-2.664 1.215-2.664 2.707v128.582Zm133.117-45.476v-20.621h-8.332c-6.21 0-11.262-5.57-11.262-12.415v-66.957c0-6.851 5.051-12.421 11.262-12.421h81.871c6.219 0 11.285 5.57 11.285 12.421v66.957c0 6.844-5.066 12.415-11.285 12.415H248.23Zm-8.332-103.973c-1.531 0-2.824 1.824-2.824 3.98v66.957c0 2.157 1.293 3.973 2.824 3.973h16.774v10.777l12.64-10.777h52.453c1.543 0 2.844-1.816 2.844-3.973v-66.957c0-2.156-1.3-3.98-2.844-3.98Zm0 0"/><path fill="#fff" d="M239.793 168.129v-54.762l47.152 27.387Zm8.441-40.102v25.442l21.903-12.715ZM108.277 251.898h-8.441v-9.691c0-9 7.996-16.32 17.82-16.32h59.676c9.824 0 17.82 7.324 17.82 16.32v7.098h-8.441v-7.098c0-4.348-4.207-7.883-9.379-7.883h-59.676c-5.172 0-9.379 3.54-9.379 7.883Zm0 0"/><path fill="#fff" d="M131.578 219.184h8.442v11.043h-8.442Zm22.856 0h8.437v11.043h-8.437Zm0 0"/><path fill="#fff" d="M147.11 222.438c-18.145 0-31.313-12.149-31.313-28.887v-4.88h8.441v4.88c0 12.043 9.407 20.449 22.871 20.449 13.47 0 22.875-8.406 22.875-20.45v-26.155h8.442v26.156c0 16.738-13.172 28.887-31.317 28.887m0 0"/><path fill="#fff" d="m124.363 209.96-21.277-25.812V161.34c0-8.371 6.785-15.184 15.125-15.184h2.727a18.21 18.21 0 0 1 13.863-6.394l55.367-.004v15.797c0 10.129-8.203 18.367-18.29 18.367h-44.065c-1.903 0-3.454 1.57-3.454 3.5v32.539Zm-12.836-28.843 4.395 5.336v-9.031c0-6.586 5.336-11.938 11.894-11.938h44.063c5.43 0 9.848-4.457 9.848-9.93V148.2H134.8c-3.317.004-6.395 1.684-8.23 4.492l-1.25 1.907h-7.114c-3.684 0-6.68 3.023-6.68 6.742Zm0 0"/><g clip-path="url(#b)"><path fill="#fff" d="M302.633 277.848H72.359c-7.832 0-17.183-6.856-18.222-7.637l-1.688-1.266v-18.77h270.094v18.77l-1.684 1.27c-1.043.777-10.398 7.633-18.226 7.633M60.89 264.64c3.32 2.187 8.277 4.77 11.468 4.77h230.278c3.183 0 8.14-2.583 11.468-4.77v-6.024H60.891Zm0 0"/></g></svg></svg>